<svg width="949" height="256" xmlns="http://www.w3.org/2000/svg" style="vector-effect: non-scaling-stroke;" stroke="null">

 <g stroke="null">
  <title stroke="null">background</title>
  <rect stroke="null" fill="none" id="canvas_background" height="402" width="582" y="-1" x="-1"/>
 </g>
 <g stroke="null">
  <title stroke="null">Layer 1</title>
  <g stroke="null" transform="translate(300,55.69499969482422) scale(0.699999988079071) " id="svg_4" fill="#333">
   <text stroke="null" font-weight="normal" font-style="normal" transform="matrix(0.5478599023868135,0,0,0.5478599023868135,-110.96261595400516,3.009073219342775) " xml:space="preserve" text-anchor="start" font-family="'League Gothic', sans-serif" font-size="250" id="svg_32" y="335.214402" x="50.140263" fill-opacity="null" stroke-opacity="null" stroke-width="59" fill="#000000">LYOBO'S BLOG</text>
  </g>
  <!---->
  <defs stroke="null">
   <!---->
  </defs>
  <defs stroke="null">
   <!---->
  </defs>
  <defs stroke="null">
   <!---->
  </defs>
  <!---->
  <g stroke="null" id="svg_22">
   <g stroke="null" transform="matrix(2.759624035325793,0,0,2.759624035325793,-27977.797265837606,-7138.054446960394) " fill="#F6575E" id="svg_11">
    <path stroke="null" id="svg_16" d="m10213.181022,2638.469073c0.274,2.458 -0.105,3.607 -4.061,4.562c-0.927,0.384 -5.534,-0.244 -4.873,2.539c0.524,3.306 2.64,4.672 5.684,4.568c3.044,-0.104 6.19,-0.306 7.713,-2.438c1.523,-2.132 4.669,-3.856 2.843,-7.104c-1.827,-3.25 -4.011,-7.311 -6.696,-9.34c-5.483,-1.824 -1.492,1.788 -0.61,7.213z"/>
    <path stroke="null" id="svg_17" d="m10204.201022,2637.771073c-5.277,0.203 -4.145,3.392 -4.043,6.539c0.102,3.146 2.583,3.267 2.99,2.96c0.458,0.113 -0.38,-0.139 -0.173,-2.474c0.382,-4.439 -1.233,-3.679 5.213,-4.069c3.314,-0.205 3.36,-3.057 1.732,-3.463c0,0 -0.442,0.305 -5.719,0.507z"/>
    <path stroke="null" id="svg_18" d="m10197.134022,2632.231073c-4.061,0.197 -2.233,5.983 -1.523,10.448c0.273,2.699 3.21,3.247 3.006,2.393c0.376,0.372 -0.593,-4.23 -0.809,-7.262c-0.205,-2.842 1.862,-2.573 6.026,-2.479c4.156,0.094 6.369,-1.46 5.478,-2.594c-1.117,-1.423 -8.12,-0.71 -12.178,-0.506z"/>
    <path stroke="null" id="svg_19" d="m10191.524022,2624.521073c-4.265,0.306 -2.538,12.716 -2.03,15.454c0.506,2.744 2.544,3.05 3.358,3.199c1.73,0.408 0.094,-0.411 -1.023,-5.588c-1.115,-5.175 -0.202,-7.353 1.002,-8.407c1.201,-1.056 8.338,-0.769 10.366,-0.366c3.712,0.637 0.827,-1.182 -1.689,-2.843c-1.21,-0.8 -5.72,-1.752 -9.984,-1.449zm4.403,-1.915c-1.303,0.391 -3.004,0.354 -4.241,-0.803c-1.237,-1.157 -0.518,-2.221 -0.518,-2.221c-0.039,0.082 0.467,-1.985 2.71,-1.351c2.701,0.767 3.326,1.559 3.604,2.383c0,0 0,1.157 -1.555,1.992z"/>
    <path stroke="null" id="svg_20" d="m10207.767022,2627.345073c2.372,2.403 2.347,1.668 1.934,1.035c-1.608,-2.598 -1.971,-3.33 -4.393,-6.058c-2.598,-2.95 -10.912,-13.284 -12.823,-13.293c0,0 -4.855,-0.801 -3.767,-1.916c0,0 3.034,-6.556 1.306,-11.155c-0.874,-2.299 -3.588,-3.968 -6.345,-1.555c-4.469,4.262 -2.532,11.753 -1.101,10.458c2.185,-1.976 -2.506,2.798 1.796,-6.395c0.796,-1.854 1.991,-2.348 2.38,-0.243c0.622,3.454 0.576,4.47 -1.615,8.562c-1.104,1.41 -0.583,2.439 -0.38,3.859c0.2,1.421 2.282,0.402 6.867,1.321"/>
    <path stroke="null" id="svg_21" d="m10181.476022,2638.457073c-1.622,-1.22 0.407,-10.355 0.907,-15.429c0.502,-5.076 3.559,-7.408 6.337,-8.324c0.497,-0.164 4.512,1.446 3.251,1.77c-3.549,0.916 -5.477,5.248 -5.986,8.551c-0.594,3.887 1.24,9.96 1.478,14.549c0.069,1.396 -0.978,2.037 -1.988,-0.803c-0.434,-3.232 -0.039,-2.588 -0.648,-4.718c-0.611,-2.133 -1.554,-1.777 -1.179,4.191c0.192,1.307 0.484,1.307 -2.172,0.213zm-2.724,-38.235a89.245,89.245 0 0 1 -3.631,2.595c0.496,0.413 0.934,0.902 1.255,1.369c0.876,1.278 0.439,1.064 0.77,3.894c0.531,6.176 2.557,12.399 3.166,12.806c0.611,0.408 2.79,-4.898 2.889,-7.022c0.103,-2.12 -3.224,-9.128 -4.139,-10.751m-5.349,4.09c-0.235,-0.253 -0.754,-2.018 -1.005,-2.799a101.589,101.589 0 0 1 -4.665,2.795c0.896,1.332 1.633,2.882 1.843,4.353c0.506,3.579 2.724,16.432 9.132,21.506c1.116,0.611 -3.04,-15.538 -3.227,-17.364c-0.185,-1.83 -0.96,-7.275 -2.078,-8.491zm-10.055,16.771c2.583,5.293 7.011,10.259 9.519,15.662c1.114,2.401 3.571,9.925 3.576,12.596c1.506,-3.504 1.499,-11.628 0.015,-15.31l-13.635,-27.118a111.546,111.546 0 0 1 -6.411,2.935c-0.065,0.071 -0.098,0.126 -0.077,0.15m-2.756,1.257c-1.793,1.167 -3.593,2.324 -5.375,3.506c-0.745,0.495 -4.121,2.746 -4.867,3.249c0.419,0.561 1.729,-0.631 2.937,0.886c2.791,3.271 5.564,6.522 7.741,10.193c3.389,5.714 6.827,11.528 11.033,16.693c2.767,3.397 6.515,10.432 9.73,13.23c-0.45,-8.233 -6.583,-19.686 -10.848,-26.447m1.626,24.416c-4.158,-4.587 -5.623,-7.487 -8.057,-11.492c-4.941,-8.133 -7.892,-18.057 -14.665,-24.924l0,13.523c0.334,0.638 0.662,1.282 0.982,1.937c2.656,5.425 5.311,10.701 8.484,15.855c4.104,6.667 6.536,10.993 13.005,14.551l8.159,0m-18.479,-0.001c-4.98,-6.3 -9.206,-13.147 -12.151,-20.709l0,16.889a98.497,98.497 0 0 0 2.543,3.82l9.608,0z"/>
   </g>
  </g>
 </g>
</svg>