<svg data-v-29081953="" xmlns="http://www.w3.org/2000/svg" viewBox="0 0 300 300"><!----><defs data-v-29081953=""><!----></defs><rect data-v-29081953="" fill="#156EAC" x="0" y="0" width="300px" height="300px" class="logo-background-square"></rect><defs data-v-29081953=""><!----></defs><g data-v-29081953="" id="85fb27c9-e860-4805-966c-e68bc4a56380" fill="#ffffff" transform="matrix(2.1759527162589594,0,0,2.1759527162589594,92.84330573800904,127.16337545430514)"><path d="M1.25 14L1.25 14Q1.02 14 1.02 13.78L1.02 13.78L1.02 4.42L1.02 4.42Q1.02 4.20 1.25 4.20L1.25 4.20L2.42 4.20L2.42 4.20Q2.65 4.20 2.65 4.42L2.65 4.42L2.65 12.52L2.65 12.52Q2.65 12.60 2.73 12.60L2.73 12.60L7.35 12.60L7.35 12.60Q7.57 12.60 7.57 12.82L7.57 12.82L7.57 13.78L7.57 13.78Q7.57 14 7.35 14L7.35 14L1.25 14ZM8.72 16.79L8.72 16.79Q8.62 16.79 8.62 16.56L8.62 16.56L8.62 15.67L8.62 15.67Q8.62 15.44 8.72 15.44L8.72 15.44L8.81 15.44L8.81 15.44Q9.38 15.44 9.70 15.34L9.70 15.34L9.70 15.34Q10.02 15.23 10.23 14.94L10.23 14.94L10.23 14.94Q10.43 14.64 10.60 14.06L10.60 14.06L10.60 14.06Q10.63 13.99 10.60 13.94L10.60 13.94L8.32 7.10L8.32 7.10Q8.30 7.06 8.30 7L8.30 7L8.30 7Q8.30 6.85 8.50 6.85L8.50 6.85L9.76 6.85L9.76 6.85Q9.95 6.85 10.01 7.03L10.01 7.03L11.38 11.66L11.38 11.66Q11.41 11.72 11.45 11.72L11.45 11.72L11.45 11.72Q11.48 11.72 11.49 11.66L11.49 11.66L12.82 7.03L12.82 7.03Q12.88 6.85 13.08 6.85L13.08 6.85L14.34 6.85L14.34 6.85Q14.46 6.85 14.51 6.91L14.51 6.91L14.51 6.91Q14.56 6.97 14.52 7.10L14.52 7.10L12.07 14.39L12.07 14.39Q11.72 15.39 11.38 15.88L11.38 15.88L11.38 15.88Q11.05 16.37 10.46 16.58L10.46 16.58L10.46 16.58Q9.88 16.79 8.82 16.79L8.82 16.79L8.72 16.79ZM18.76 14.11L18.76 14.11Q17.65 14.11 16.86 13.55L16.86 13.55L16.86 13.55Q16.06 12.99 15.75 12.00L15.75 12.00L15.75 12.00Q15.51 11.31 15.51 10.40L15.51 10.40L15.51 10.40Q15.51 9.51 15.74 8.81L15.74 8.81L15.74 8.81Q16.06 7.83 16.86 7.28L16.86 7.28L16.86 7.28Q17.65 6.73 18.77 6.73L18.77 6.73L18.77 6.73Q19.84 6.73 20.62 7.28L20.62 7.28L20.62 7.28Q21.39 7.83 21.71 8.79L21.71 8.79L21.71 8.79Q21.97 9.46 21.97 10.39L21.97 10.39L21.97 10.39Q21.97 11.27 21.73 11.98L21.73 11.98L21.73 11.98Q21.41 12.98 20.62 13.54L20.62 13.54L20.62 13.54Q19.84 14.11 18.76 14.11L18.76 14.11ZM18.76 12.71L18.76 12.71Q19.28 12.71 19.65 12.42L19.65 12.42L19.65 12.42Q20.02 12.12 20.17 11.59L20.17 11.59L20.17 11.59Q20.33 11.14 20.33 10.42L20.33 10.42L20.33 10.42Q20.33 9.73 20.19 9.24L20.19 9.24L20.19 9.24Q20.03 8.71 19.65 8.42L19.65 8.42L19.65 8.42Q19.26 8.13 18.73 8.13L18.73 8.13L18.73 8.13Q18.20 8.13 17.82 8.42L17.82 8.42L17.82 8.42Q17.44 8.71 17.29 9.24L17.29 9.24L17.29 9.24Q17.15 9.73 17.15 10.42L17.15 10.42L17.15 10.42Q17.15 11.10 17.29 11.59L17.29 11.59L17.29 11.59Q17.44 12.12 17.83 12.42L17.83 12.42L17.83 12.42Q18.21 12.71 18.76 12.71L18.76 12.71ZM29.54 8.69L29.54 8.69Q29.78 9.41 29.78 10.40L29.78 10.40L29.78 10.40Q29.78 11.37 29.53 12.15L29.53 12.15L29.53 12.15Q29.22 13.06 28.52 13.59L28.52 13.59L28.52 13.59Q27.82 14.11 26.84 14.11L26.84 14.11L26.84 14.11Q25.84 14.11 25.24 13.38L25.24 13.38L25.24 13.38Q25.21 13.33 25.18 13.34L25.18 13.34L25.18 13.34Q25.14 13.36 25.14 13.41L25.14 13.41L25.14 13.78L25.14 13.78Q25.14 14 24.92 14L24.92 14L23.74 14L23.74 14Q23.52 14 23.52 13.78L23.52 13.78L23.52 4.42L23.52 4.42Q23.52 4.20 23.74 4.20L23.74 4.20L24.92 4.20L24.92 4.20Q25.14 4.20 25.14 4.42L25.14 4.42L25.14 7.39L25.14 7.39Q25.14 7.45 25.18 7.46L25.18 7.46L25.18 7.46Q25.21 7.46 25.24 7.42L25.24 7.42L25.24 7.42Q25.86 6.73 26.84 6.73L26.84 6.73L26.84 6.73Q27.86 6.73 28.55 7.25L28.55 7.25L28.55 7.25Q29.23 7.77 29.54 8.69L29.54 8.69ZM27.76 12.03L27.76 12.03Q28.10 11.44 28.10 10.43L28.10 10.43L28.10 10.43Q28.10 9.34 27.69 8.72L27.69 8.72L27.69 8.72Q27.30 8.13 26.57 8.13L26.57 8.13L26.57 8.13Q25.90 8.13 25.52 8.75L25.52 8.75L25.52 8.75Q25.17 9.32 25.17 10.42L25.17 10.42L25.17 10.42Q25.17 11.49 25.49 12.04L25.49 12.04L25.49 12.04Q25.89 12.70 26.59 12.70L26.59 12.70L26.59 12.70Q27.40 12.70 27.76 12.03L27.76 12.03ZM34.27 14.11L34.27 14.11Q33.17 14.11 32.37 13.55L32.37 13.55L32.37 13.55Q31.57 12.99 31.26 12.00L31.26 12.00L31.26 12.00Q31.02 11.31 31.02 10.40L31.02 10.40L31.02 10.40Q31.02 9.51 31.25 8.81L31.25 8.81L31.25 8.81Q31.57 7.83 32.37 7.28L32.37 7.28L32.37 7.28Q33.17 6.73 34.29 6.73L34.29 6.73L34.29 6.73Q35.35 6.73 36.13 7.28L36.13 7.28L36.13 7.28Q36.90 7.83 37.23 8.79L37.23 8.79L37.23 8.79Q37.48 9.46 37.48 10.39L37.48 10.39L37.48 10.39Q37.48 11.27 37.24 11.98L37.24 11.98L37.24 11.98Q36.92 12.98 36.13 13.54L36.13 13.54L36.13 13.54Q35.35 14.11 34.27 14.11L34.27 14.11ZM34.27 12.71L34.27 12.71Q34.79 12.71 35.16 12.42L35.16 12.42L35.16 12.42Q35.53 12.12 35.69 11.59L35.69 11.59L35.69 11.59Q35.84 11.14 35.84 10.42L35.84 10.42L35.84 10.42Q35.84 9.73 35.70 9.24L35.70 9.24L35.70 9.24Q35.55 8.71 35.16 8.42L35.16 8.42L35.16 8.42Q34.78 8.13 34.24 8.13L34.24 8.13L34.24 8.13Q33.71 8.13 33.33 8.42L33.33 8.42L33.33 8.42Q32.96 8.71 32.80 9.24L32.80 9.24L32.80 9.24Q32.66 9.73 32.66 10.42L32.66 10.42L32.66 10.42Q32.66 11.10 32.80 11.59L32.80 11.59L32.80 11.59Q32.96 12.12 33.34 12.42L33.34 12.42L33.34 12.42Q33.73 12.71 34.27 12.71L34.27 12.71ZM38.82 7.28L38.82 7.28Q38.60 7.28 38.58 7.06L38.58 7.06L38.44 4.44L38.44 4.41L38.44 4.41Q38.44 4.21 38.65 4.21L38.65 4.21L39.84 4.21L39.84 4.21Q39.96 4.21 40.02 4.28L40.02 4.28L40.02 4.28Q40.08 4.34 40.07 4.44L40.07 4.44L39.91 7.06L39.91 7.06Q39.90 7.28 39.68 7.28L39.68 7.28L38.82 7.28ZM43.86 14.08L43.86 14.08Q42.98 14.08 42.31 13.82L42.31 13.82L42.31 13.82Q41.65 13.57 41.29 13.11L41.29 13.11L41.29 13.11Q40.92 12.66 40.92 12.10L40.92 12.10L40.92 12.03L40.92 12.03Q40.92 11.80 41.15 11.80L41.15 11.80L42.27 11.80L42.27 11.80Q42.49 11.80 42.49 11.90L42.49 11.90L42.49 12.00L42.49 12.00Q42.49 12.35 42.88 12.61L42.88 12.61L42.88 12.61Q43.26 12.87 43.85 12.87L43.85 12.87L43.85 12.87Q44.41 12.87 44.76 12.63L44.76 12.63L44.76 12.63Q45.11 12.40 45.11 12.05L45.11 12.05L45.11 12.05Q45.11 11.73 44.82 11.57L44.82 11.57L44.82 11.57Q44.53 11.41 43.89 11.23L43.89 11.23L43.36 11.06L43.36 11.06Q42.64 10.85 42.15 10.61L42.15 10.61L42.15 10.61Q41.66 10.37 41.33 9.96L41.33 9.96L41.33 9.96Q40.99 9.55 40.99 8.90L40.99 8.90L40.99 8.90Q40.99 7.92 41.76 7.34L41.76 7.34L41.76 7.34Q42.52 6.76 43.78 6.76L43.78 6.76L43.78 6.76Q44.63 6.76 45.28 7.04L45.28 7.04L45.28 7.04Q45.92 7.31 46.28 7.79L46.28 7.79L46.28 7.79Q46.63 8.27 46.63 8.89L46.63 8.89L46.63 8.89Q46.63 8.96 46.57 9.01L46.57 9.01L46.57 9.01Q46.51 9.06 46.41 9.06L46.41 9.06L45.33 9.06L45.33 9.06Q45.11 9.06 45.11 8.97L45.11 8.97L45.11 8.89L45.11 8.89Q45.11 8.53 44.75 8.28L44.75 8.28L44.75 8.28Q44.39 8.04 43.78 8.04L43.78 8.04L43.78 8.04Q43.23 8.04 42.89 8.24L42.89 8.24L42.89 8.24Q42.55 8.44 42.55 8.81L42.55 8.81L42.55 8.81Q42.55 9.14 42.87 9.32L42.87 9.32L42.87 9.32Q43.19 9.49 43.95 9.70L43.95 9.70L44.27 9.79L44.27 9.79Q45.02 10.01 45.53 10.23L45.53 10.23L45.53 10.23Q46.03 10.46 46.38 10.88L46.38 10.88L46.38 10.88Q46.73 11.30 46.73 11.96L46.73 11.96L46.73 11.96Q46.73 12.95 45.95 13.52L45.95 13.52L45.95 13.52Q45.16 14.08 43.86 14.08L43.86 14.08ZM56.56 8.88L56.56 8.88Q56.50 8.89 56.50 8.93L56.50 8.93L56.50 8.93Q56.50 8.96 56.56 8.99L56.56 8.99L56.56 8.99Q57.96 9.66 57.96 11.28L57.96 11.28L57.96 11.28Q57.96 12.61 57.07 13.31L57.07 13.31L57.07 13.31Q56.18 14 54.75 14L54.75 14L51.28 14L51.28 14Q51.06 14 51.06 13.78L51.06 13.78L51.06 4.42L51.06 4.42Q51.06 4.20 51.28 4.20L51.28 4.20L54.64 4.20L54.64 4.20Q56.17 4.20 56.99 4.86L56.99 4.86L56.99 4.86Q57.82 5.52 57.82 6.85L57.82 6.85L57.82 6.85Q57.82 8.29 56.56 8.88L56.56 8.88ZM52.77 5.60L52.77 5.60Q52.68 5.60 52.68 5.68L52.68 5.68L52.68 8.25L52.68 8.25Q52.68 8.33 52.77 8.33L52.77 8.33L54.64 8.33L54.64 8.33Q55.38 8.33 55.81 7.97L55.81 7.97L55.81 7.97Q56.24 7.62 56.24 6.99L56.24 6.99L56.24 6.99Q56.24 6.34 55.81 5.97L55.81 5.97L55.81 5.97Q55.38 5.60 54.64 5.60L54.64 5.60L52.77 5.60ZM54.75 12.59L54.75 12.59Q55.48 12.59 55.91 12.19L55.91 12.19L55.91 12.19Q56.34 11.80 56.34 11.13L56.34 11.13L56.34 11.13Q56.34 10.44 55.90 10.06L55.90 10.06L55.90 10.06Q55.47 9.67 54.73 9.67L54.73 9.67L52.77 9.67L52.77 9.67Q52.68 9.67 52.68 9.76L52.68 9.76L52.68 12.50L52.68 12.50Q52.68 12.59 52.77 12.59L52.77 12.59L54.75 12.59ZM59.85 14L59.85 14Q59.63 14 59.63 13.78L59.63 13.78L59.63 4.42L59.63 4.42Q59.63 4.20 59.85 4.20L59.85 4.20L61.03 4.20L61.03 4.20Q61.25 4.20 61.25 4.42L61.25 4.42L61.25 13.78L61.25 13.78Q61.25 14 61.03 14L61.03 14L59.85 14ZM66.07 14.11L66.07 14.11Q64.96 14.11 64.16 13.55L64.16 13.55L64.16 13.55Q63.36 12.99 63.06 12.00L63.06 12.00L63.06 12.00Q62.82 11.31 62.82 10.40L62.82 10.40L62.82 10.40Q62.82 9.51 63.04 8.81L63.04 8.81L63.04 8.81Q63.36 7.83 64.16 7.28L64.16 7.28L64.16 7.28Q64.96 6.73 66.08 6.73L66.08 6.73L66.08 6.73Q67.14 6.73 67.92 7.28L67.92 7.28L67.92 7.28Q68.70 7.83 69.02 8.79L69.02 8.79L69.02 8.79Q69.27 9.46 69.27 10.39L69.27 10.39L69.27 10.39Q69.27 11.27 69.03 11.98L69.03 11.98L69.03 11.98Q68.71 12.98 67.93 13.54L67.93 13.54L67.93 13.54Q67.14 14.11 66.07 14.11L66.07 14.11ZM66.07 12.71L66.07 12.71Q66.58 12.71 66.95 12.42L66.95 12.42L66.95 12.42Q67.33 12.12 67.48 11.59L67.48 11.59L67.48 11.59Q67.63 11.14 67.63 10.42L67.63 10.42L67.63 10.42Q67.63 9.73 67.49 9.24L67.49 9.24L67.49 9.24Q67.34 8.71 66.95 8.42L66.95 8.42L66.95 8.42Q66.57 8.13 66.04 8.13L66.04 8.13L66.04 8.13Q65.51 8.13 65.13 8.42L65.13 8.42L65.13 8.42Q64.75 8.71 64.60 9.24L64.60 9.24L64.60 9.24Q64.46 9.73 64.46 10.42L64.46 10.42L64.46 10.42Q64.46 11.10 64.60 11.59L64.60 11.59L64.60 11.59Q64.75 12.12 65.14 12.42L65.14 12.42L65.14 12.42Q65.52 12.71 66.07 12.71L66.07 12.71ZM75.19 7.07L75.19 7.07Q75.19 6.85 75.42 6.85L75.42 6.85L76.59 6.85L76.59 6.85Q76.82 6.85 76.82 7.07L76.82 7.07L76.82 13.52L76.82 13.52Q76.82 15.27 75.81 16.03L75.81 16.03L75.81 16.03Q74.80 16.79 73.18 16.79L73.18 16.79L73.18 16.79Q72.79 16.79 72.38 16.74L72.38 16.74L72.38 16.74Q72.18 16.73 72.18 16.49L72.18 16.49L72.23 15.46L72.23 15.46Q72.23 15.36 72.30 15.30L72.30 15.30L72.30 15.30Q72.37 15.25 72.48 15.26L72.48 15.26L72.48 15.26Q72.95 15.29 73.14 15.29L73.14 15.29L73.14 15.29Q74.20 15.29 74.70 14.88L74.70 14.88L74.70 14.88Q75.19 14.46 75.19 13.48L75.19 13.48L75.19 13.40L75.19 13.40Q75.19 13.34 75.17 13.33L75.17 13.33L75.17 13.33Q75.14 13.31 75.10 13.36L75.10 13.36L75.10 13.36Q74.52 13.96 73.49 13.96L73.49 13.96L73.49 13.96Q72.58 13.96 71.82 13.50L71.82 13.50L71.82 13.50Q71.06 13.03 70.77 12.08L70.77 12.08L70.77 12.08Q70.59 11.42 70.59 10.39L70.59 10.39L70.59 10.39Q70.59 9.23 70.81 8.61L70.81 8.61L70.81 8.61Q71.09 7.76 71.78 7.25L71.78 7.25L71.78 7.25Q72.46 6.73 73.39 6.73L73.39 6.73L73.39 6.73Q74.47 6.73 75.10 7.36L75.10 7.36L75.10 7.36Q75.14 7.41 75.17 7.39L75.17 7.39L75.17 7.39Q75.19 7.38 75.19 7.32L75.19 7.32L75.19 7.07ZM75.10 11.62L75.10 11.62Q75.15 11.41 75.17 11.16L75.17 11.16L75.17 11.16Q75.19 10.92 75.19 10.37L75.19 10.37L75.19 10.37Q75.19 9.84 75.17 9.61L75.17 9.61L75.17 9.61Q75.15 9.38 75.08 9.16L75.08 9.16L75.08 9.16Q74.97 8.69 74.63 8.41L74.63 8.41L74.63 8.41Q74.28 8.13 73.75 8.13L73.75 8.13L73.75 8.13Q73.25 8.13 72.90 8.41L72.90 8.41L72.90 8.41Q72.55 8.69 72.39 9.16L72.39 9.16L72.39 9.16Q72.23 9.55 72.23 10.39L72.23 10.39L72.23 10.39Q72.23 11.26 72.37 11.61L72.37 11.61L72.37 11.61Q72.51 12.05 72.88 12.34L72.88 12.34L72.88 12.34Q73.25 12.63 73.77 12.63L73.77 12.63L73.77 12.63Q74.31 12.63 74.65 12.35L74.65 12.35L74.65 12.35Q74.98 12.07 75.10 11.62L75.10 11.62Z"></path></g><defs data-v-29081953=""><!----></defs><g data-v-29081953="" id="bffd172a-4133-4bf5-b73e-7731ae955e1c" stroke="none" fill="#F6575E" transform="matrix(0.5399805690492608,0,0,0.5399805690492608,34.195208367754844,123.70257715995888)"><path d="M80.787 55.898c.274 2.458-.105 3.607-4.061 4.562-.927.384-5.534-.244-4.873 2.539.524 3.306 2.64 4.672 5.684 4.568 3.044-.104 6.19-.306 7.713-2.438 1.523-2.132 4.669-3.856 2.843-7.104-1.827-3.25-4.011-7.311-6.696-9.34-5.483-1.824-1.492 1.788-.61 7.213z"></path><path d="M71.807 55.2c-5.277.203-4.145 3.392-4.043 6.539.102 3.146 2.583 3.267 2.99 2.96.458.113-.38-.139-.173-2.474.382-4.439-1.233-3.679 5.213-4.069 3.314-.205 3.36-3.057 1.732-3.463 0 0-.442.305-5.719.507z"></path><path d="M64.74 49.66c-4.061.197-2.233 5.983-1.523 10.448.273 2.699 3.21 3.247 3.006 2.393.376.372-.593-4.23-.809-7.262-.205-2.842 1.862-2.573 6.026-2.479 4.156.094 6.369-1.46 5.478-2.594-1.117-1.423-8.12-.71-12.178-.506z"></path><path d="M59.13 41.95c-4.265.306-2.538 12.716-2.03 15.454.506 2.744 2.544 3.05 3.358 3.199 1.73.408.094-.411-1.023-5.588-1.115-5.175-.202-7.353 1.002-8.407 1.201-1.056 8.338-.769 10.366-.366 3.712.637.827-1.182-1.689-2.843-1.21-.8-5.72-1.752-9.984-1.449zM63.533 40.035c-1.303.391-3.004.354-4.241-.803-1.237-1.157-.518-2.221-.518-2.221-.039.082.467-1.985 2.71-1.351 2.701.767 3.326 1.559 3.604 2.383 0 0 0 1.157-1.555 1.992z"></path><path d="M75.373 44.774c2.372 2.403 2.347 1.668 1.934 1.035-1.608-2.598-1.971-3.33-4.393-6.058-2.598-2.95-10.912-13.284-12.823-13.293 0 0-4.855-.801-3.767-1.916 0 0 3.034-6.556 1.306-11.155-.874-2.299-3.588-3.968-6.345-1.555-4.469 4.262-2.532 11.753-1.101 10.458 2.185-1.976-2.506 2.798 1.796-6.395.796-1.854 1.991-2.348 2.38-.243.622 3.454.576 4.47-1.615 8.562-1.104 1.41-.583 2.439-.38 3.859.2 1.421 2.282.402 6.867 1.321"></path><path d="M49.082 55.886c-1.622-1.22.407-10.355.907-15.429.502-5.076 3.559-7.408 6.337-8.324.497-.164 4.512 1.446 3.251 1.77-3.549.916-5.477 5.248-5.986 8.551-.594 3.887 1.24 9.96 1.478 14.549.069 1.396-.978 2.037-1.988-.803-.434-3.232-.039-2.588-.648-4.718-.611-2.133-1.554-1.777-1.179 4.191.192 1.307.484 1.307-2.172.213zM46.358 17.651a89.245 89.245 0 0 1-3.631 2.595c.496.413.934.902 1.255 1.369.876 1.278.439 1.064.77 3.894.531 6.176 2.557 12.399 3.166 12.806.611.408 2.79-4.898 2.889-7.022.103-2.12-3.224-9.128-4.139-10.751M41.319 24.632c-.235-.253-.754-2.018-1.005-2.799a101.589 101.589 0 0 1-4.665 2.795c.896 1.332 1.633 2.882 1.843 4.353.506 3.579 2.724 16.432 9.132 21.506 1.116.611-3.04-15.538-3.227-17.364-.185-1.83-.96-7.275-2.078-8.491zM31.264 41.403c2.583 5.293 7.011 10.259 9.519 15.662 1.114 2.401 3.571 9.925 3.576 12.596 1.506-3.504 1.499-11.628.015-15.31L30.739 27.233a111.546 111.546 0 0 1-6.411 2.935c-.065.071-.098.126-.077.15M21.495 31.575c-1.793 1.167-3.593 2.324-5.375 3.506-.745.495-4.121 2.746-4.867 3.249.419.561 1.729-.631 2.937.886 2.791 3.271 5.564 6.522 7.741 10.193 3.389 5.714 6.827 11.528 11.033 16.693 2.767 3.397 6.515 10.432 9.73 13.23-.45-8.233-6.583-19.686-10.848-26.447M33.472 77.301c-4.158-4.587-5.623-7.487-8.057-11.492-4.941-8.133-7.892-18.057-14.665-24.924v13.523c.334.638.662 1.282.982 1.937 2.656 5.425 5.311 10.701 8.484 15.855 4.104 6.667 6.536 10.993 13.005 14.551h8.159M22.901 86.75c-4.98-6.3-9.206-13.147-12.151-20.709V82.93a98.497 98.497 0 0 0 2.543 3.82h9.608z"></path></g><!----></svg>